<?xml version="1.0" encoding="UTF-8" standalone="no"?>
<!DOCTYPE svg PUBLIC "-//W3C//DTD SVG 1.1//EN" "http://www.w3.org/Graphics/SVG/1.1/DTD/svg11.dtd">
<svg version="1.1" xmlns="http://www.w3.org/2000/svg" xmlns:xlink="http://www.w3.org/1999/xlink" preserveAspectRatio="xMidYMid meet" viewBox="50.38797023880222 91.83553330472469 203.99999999999991 203.99999999999997" width="200" height="200"><defs><path d="M51.39 92.84L251.39 92.84L251.39 292.84L51.39 292.84L51.39 92.84Z" id="chvKNdksa"></path><path d="M186.82 182.27C196.3 188.86 196.26 196.71 186.6 203.3C168.21 215.87 149.77 228.42 130.78 240.22C120.51 246.61 110.92 242.36 109.83 230.74C108.62 217.88 109.55 204.84 109.55 191.88C109.53 191.88 109.44 191.88 109.28 191.88C108.69 175.87 108.77 163.91 109.5 155.99C110.72 142.85 120.28 138.71 132.38 146.16C150.95 157.62 168.98 169.87 186.82 182.27Z" id="g3mXnEZcrV"></path></defs><g><g><use xlink:href="#chvKNdksa" opacity="1" fill="#36ff00" fill-opacity="0"></use></g><g><use xlink:href="#g3mXnEZcrV" opacity="1" fill="#ffffff" fill-opacity="1"></use><g><use xlink:href="#g3mXnEZcrV" opacity="1" fill-opacity="0" stroke="#000000" stroke-width="1" stroke-opacity="0"></use></g></g></g></svg>