<?xml version="1.0" encoding="UTF-8" standalone="no"?>
<!DOCTYPE svg PUBLIC "-//W3C//DTD SVG 1.1//EN" "http://www.w3.org/Graphics/SVG/1.1/DTD/svg11.dtd">
<svg version="1.1" xmlns="http://www.w3.org/2000/svg" xmlns:xlink="http://www.w3.org/1999/xlink" preserveAspectRatio="xMidYMid meet" viewBox="50.38797023880222 91.83553330472469 203.99999999999991 203.99999999999997" width="200" height="200"><defs><path d="M51.39 92.84L251.39 92.84L251.39 292.84L51.39 292.84L51.39 92.84Z" id="a1fm6MMIki"></path><path d="M151.39 151.14C148.78 151.14 146.15 152.22 144.18 154.35C138.94 160 97.1 205.2 91.87 210.85C87.89 215.15 87.89 222.13 91.87 226.45C92.32 226.93 95.92 230.82 96.37 231.31C100.35 235.61 106.81 235.61 110.81 231.31C114.15 227.71 140.86 198.86 144.19 195.25C146.19 193.09 148.8 192.03 151.4 192.03C154.01 192.03 156.64 193.11 158.61 195.25C161.95 198.86 188.66 227.71 192 231.31C195.98 235.61 202.44 235.61 206.44 231.31C206.89 230.82 210.49 226.93 210.94 226.45C214.88 222.13 214.88 215.15 210.9 210.85C200.44 199.55 163.83 160 158.59 154.35C156.59 152.19 153.99 151.14 151.39 151.14Z" id="fKdNbcYiM"></path></defs><g><g><use xlink:href="#a1fm6MMIki" opacity="1" fill="#36ff00" fill-opacity="0"></use></g><g><use xlink:href="#fKdNbcYiM" opacity="1" fill="#ffffff" fill-opacity="1"></use><g><use xlink:href="#fKdNbcYiM" opacity="1" fill-opacity="0" stroke="#000000" stroke-width="1" stroke-opacity="0"></use></g></g></g></svg>