<?xml version="1.0" encoding="UTF-8" standalone="no"?>
<!DOCTYPE svg PUBLIC "-//W3C//DTD SVG 1.1//EN" "http://www.w3.org/Graphics/SVG/1.1/DTD/svg11.dtd">
<svg version="1.1" xmlns="http://www.w3.org/2000/svg" xmlns:xlink="http://www.w3.org/1999/xlink" preserveAspectRatio="xMidYMid meet" viewBox="50.38797023880222 91.83553330472469 203.99999999999991 203.99999999999997" width="200" height="200"><defs><path d="M51.39 92.84L251.39 92.84L251.39 292.84L51.39 292.84L51.39 92.84Z" id="b1O70j7xHj"></path><path d="M144.18 231.31C138.95 225.66 97.1 180.47 91.87 174.83C87.89 170.52 87.89 163.54 91.87 159.22C92.32 158.74 95.92 154.85 96.37 154.36C100.35 150.06 106.82 150.06 110.82 154.36C114.15 157.96 140.85 186.81 144.2 190.42C146.2 192.58 148.81 193.63 151.4 193.63C154.02 193.63 156.64 192.55 158.61 190.42C161.96 186.81 188.66 157.96 192 154.36C195.98 150.06 202.44 150.06 206.44 154.36C206.89 154.85 210.49 158.74 210.94 159.22C214.88 163.54 214.88 170.52 210.9 174.83C200.44 186.12 163.83 225.66 158.59 231.31C156.59 233.47 153.99 234.54 151.39 234.54C148.78 234.54 146.15 233.46 144.18 231.31Z" id="cVpD617Ya"></path></defs><g><g><use xlink:href="#b1O70j7xHj" opacity="1" fill="#36ff00" fill-opacity="0"></use></g><g><use xlink:href="#cVpD617Ya" opacity="1" fill="#ffffff" fill-opacity="1"></use><g><use xlink:href="#cVpD617Ya" opacity="1" fill-opacity="0" stroke="#000000" stroke-width="1" stroke-opacity="0"></use></g></g></g></svg>