<?xml version="1.0" encoding="UTF-8" standalone="no"?>
<!DOCTYPE svg PUBLIC "-//W3C//DTD SVG 1.1//EN" "http://www.w3.org/Graphics/SVG/1.1/DTD/svg11.dtd">
<svg version="1.1" xmlns="http://www.w3.org/2000/svg" xmlns:xlink="http://www.w3.org/1999/xlink" preserveAspectRatio="xMidYMid meet" viewBox="50.38797023880222 91.83553330472469 203.99999999999991 203.99999999999997" width="200" height="200"><defs><path d="M51.39 92.84L251.39 92.84L251.39 292.84L51.39 292.84L51.39 92.84Z" id="a7jRHiOm5d"></path><path d="M108.9 192.84C108.91 192.84 108.96 192.84 108.97 192.84C108.92 204.7 108.88 216.58 108.9 228.45C108.9 235 113.1 240.08 119.51 242.13C131.71 246.04 142.54 238.81 142.59 226.5C142.63 215.28 142.63 204.06 142.61 192.84C142.6 192.84 142.55 192.84 142.54 192.84C142.59 180.98 142.63 169.1 142.62 157.24C142.61 150.68 138.41 145.6 132.01 143.54C119.8 139.63 108.97 146.87 108.92 159.17C108.88 170.4 108.88 181.62 108.9 192.84ZM160.19 159.17C160.14 170.4 160.14 181.62 160.17 192.84C160.18 192.84 160.22 192.84 160.23 192.84C160.19 204.7 160.14 216.58 160.16 228.45C160.16 235 164.36 240.08 170.77 242.13C182.97 246.04 193.82 238.81 193.86 226.5C193.9 215.28 193.9 204.06 193.87 192.84C193.87 192.84 193.82 192.84 193.82 192.84C193.84 180.98 193.89 169.1 193.87 157.24C193.87 150.68 189.67 145.6 183.26 143.54C171.07 139.63 160.23 146.87 160.19 159.17Z" id="b1ZNVPnVe4"></path></defs><g><g><use xlink:href="#a7jRHiOm5d" opacity="1" fill="#36ff00" fill-opacity="0"></use></g><g><use xlink:href="#b1ZNVPnVe4" opacity="1" fill="#ffffff" fill-opacity="1"></use><g><use xlink:href="#b1ZNVPnVe4" opacity="1" fill-opacity="0" stroke="#000000" stroke-width="1" stroke-opacity="0"></use></g></g></g></svg>